<svg width="24" height="24" viewBox="0 0 24 24" fill="none" xmlns="http://www.w3.org/2000/svg">
<path d="M12.0019 4.81801C13.2171 3.75075 14.7998 3.19806 16.4152 3.27688C18.0306 3.35569 19.552 4.05982 20.6575 5.24031C21.763 6.42079 22.366 7.98504 22.3388 9.60214C22.3116 11.2192 21.6565 12.7623 20.5119 13.905L15.2869 19.13L11.9999 22.415L4.71989 15.136L3.48989 13.904C2.34566 12.7612 1.69085 11.2181 1.66395 9.60108C1.63705 7.9841 2.24017 6.42007 3.34575 5.2398C4.45133 4.05953 5.97265 3.35559 7.58794 3.27687C9.20322 3.19815 10.7868 3.75083 12.0019 4.81801Z" fill="#FFBFCB"/>
</svg>
