<svg width="153" height="80" viewBox="0 0 153 80" fill="none" xmlns="http://www.w3.org/2000/svg">
<path d="M34.3354 12.0003C42.2185 12.0003 44.5543 16.3215 44.5543 19.8251V23.971C44.5543 27.3578 42.2185 31.7374 34.3354 31.7374H12.321V44H2.04377V12.0003H34.3354ZM12.321 24.263H31.8829C31.8829 24.263 34.2186 24.263 34.2186 21.8688C34.2186 19.4747 31.8829 19.4747 31.8829 19.4747H12.321V24.263Z" fill="#FFBFCB"/>
<path d="M95.7884 12.8927H106.182V44.8923H96.0219L74.0076 24.9801V44.8923H63.6135V12.8927H73.8324L95.7884 32.8049V12.8927ZM152.827 12.8927L132.974 28.8925L152.827 44.8923H138.229L123.28 32.6297H120.594V44.8923H110.317V12.8927H120.594V25.1553H123.28L138.229 12.8927H152.827Z" fill="#FFBFCB"/>
<mask id="path-3-outside-1_1_140" maskUnits="userSpaceOnUse" x="3.62201" y="53.6614" width="146" height="20" fill="black">
<rect fill="white" x="3.62201" y="53.6614" width="146" height="20"/>
<path d="M13.428 55.3282H19.9438L28.9583 72.6614H23.3914L22.0314 70.0677H11.3721L10.012 72.6614H4.44517L13.428 55.3282ZM13.4597 66.0191H19.9438L16.6859 59.788L13.4597 66.0191ZM38.8468 63.5836H51.0243C51.0876 64.2795 51.0559 65.007 51.0243 65.7028C50.2652 72.1869 45.1728 73.0409 39.6059 73.0409C33.5646 73.0409 28.0927 72.0604 28.0927 63.9948C28.0927 55.9292 33.5646 54.9487 39.6059 54.9487C45.0779 54.9487 50.107 55.7394 50.961 61.9705H45.3309C44.6983 59.4717 42.7057 58.9973 39.6059 58.9973C35.494 58.9973 33.6595 59.6931 33.6595 63.9948C33.6595 68.2965 35.494 68.9923 39.6059 68.9923C42.0414 68.9923 43.7811 68.7076 44.73 67.3792L38.8468 65.1018V63.5836ZM75.7205 59.3768H58.2609V61.9705H74.3604V66.0191H58.2609V68.6128H75.7205V72.6614H52.694V55.3282H75.7205V59.3768ZM94.9564 55.3282H100.587V72.6614H95.0829L83.1585 61.8756V72.6614H77.5284V55.3282H83.0636L94.9564 66.114V55.3282ZM119.527 65.7028H125.157C124.398 72.1869 119.305 73.0409 113.738 73.0409C107.697 73.0409 102.225 72.0604 102.225 63.9948C102.225 55.9292 107.697 54.9487 113.738 54.9487C119.21 54.9487 124.239 55.7394 125.093 61.9705H119.463C118.831 59.4717 116.838 58.9973 113.738 58.9973C109.626 58.9973 107.792 59.6931 107.792 63.9948C107.792 68.2965 109.626 68.9923 113.738 68.9923C116.965 68.9923 118.989 68.4862 119.527 65.7028ZM148.184 55.3282L138.695 64.5958V72.693H133.128V64.5958L123.639 55.3282H129.965L135.912 61.1481L141.827 55.3282H148.184Z"/>
</mask>
<path d="M13.428 55.3282V54.8416H13.1321L12.996 55.1043L13.428 55.3282ZM19.9438 55.3282L20.3755 55.1037L20.2392 54.8416H19.9438V55.3282ZM28.9583 72.6614V73.148H29.7598L29.39 72.4369L28.9583 72.6614ZM23.3914 72.6614L22.9605 72.8874L23.0972 73.148H23.3914V72.6614ZM22.0314 70.0677L22.4623 69.8417L22.3256 69.5811H22.0314V70.0677ZM11.3721 70.0677V69.5811H11.0778L10.9411 69.8417L11.3721 70.0677ZM10.012 72.6614V73.148H10.3063L10.443 72.8874L10.012 72.6614ZM4.44517 72.6614L4.01312 72.4375L3.6449 73.148H4.44517V72.6614ZM13.4597 66.0191L13.0275 65.7954L12.6597 66.5057H13.4597V66.0191ZM19.9438 66.0191V66.5057H20.7473L20.375 65.7936L19.9438 66.0191ZM16.6859 59.788L17.1171 59.5626L16.6838 58.7338L16.2538 59.5643L16.6859 59.788ZM13.428 55.8148H19.9438V54.8416H13.428V55.8148ZM19.5121 55.5528L28.5266 72.8859L29.39 72.4369L20.3755 55.1037L19.5121 55.5528ZM28.9583 72.1748H23.3914V73.148H28.9583V72.1748ZM23.8224 72.4354L22.4623 69.8417L21.6004 70.2937L22.9605 72.8874L23.8224 72.4354ZM22.0314 69.5811H11.3721V70.5543H22.0314V69.5811ZM10.9411 69.8417L9.58106 72.4354L10.443 72.8874L11.8031 70.2937L10.9411 69.8417ZM10.012 72.1748H4.44517V73.148H10.012V72.1748ZM4.87721 72.8853L13.8601 55.5521L12.996 55.1043L4.01312 72.4375L4.87721 72.8853ZM13.4597 66.5057H19.9438V65.5325H13.4597V66.5057ZM20.375 65.7936L17.1171 59.5626L16.2547 60.0135L19.5126 66.2446L20.375 65.7936ZM16.2538 59.5643L13.0275 65.7954L13.8918 66.2429L17.118 60.0118L16.2538 59.5643ZM38.8468 63.5836V63.097H38.3602V63.5836H38.8468ZM51.0243 63.5836L51.5089 63.5396L51.4687 63.097H51.0243V63.5836ZM51.0243 65.7028L51.5076 65.7594L51.5096 65.7422L51.5104 65.7249L51.0243 65.7028ZM50.961 61.9705V62.4571H51.5189L51.4431 61.9044L50.961 61.9705ZM45.3309 61.9705L44.8592 62.0899L44.9522 62.4571H45.3309V61.9705ZM44.73 67.3792L45.1259 67.662L45.4904 67.1518L44.9056 66.9254L44.73 67.3792ZM38.8468 65.1018H38.3602V65.4353L38.6711 65.5556L38.8468 65.1018ZM38.8468 64.0702H51.0243V63.097H38.8468V64.0702ZM50.5397 63.6277C50.5994 64.2851 50.5701 64.9796 50.5382 65.6807L51.5104 65.7249C51.5418 65.0343 51.5757 64.2738 51.5089 63.5396L50.5397 63.6277ZM50.541 65.6462C50.179 68.7386 48.8061 70.4226 46.9017 71.3675C44.948 72.3369 42.3845 72.5543 39.6059 72.5543V73.5275C42.3942 73.5275 45.1604 73.318 47.3343 72.2393C49.5576 71.1362 51.1105 69.1511 51.5076 65.7594L50.541 65.6462ZM39.6059 72.5543C36.5854 72.5543 33.8293 72.303 31.8312 71.1234C29.8922 69.9788 28.5793 67.9016 28.5793 63.9948H27.6061C27.6061 68.1536 29.0291 70.5995 31.3364 71.9615C33.5846 73.2887 36.5851 73.5275 39.6059 73.5275V72.5543ZM28.5793 63.9948C28.5793 60.088 29.8922 58.0108 31.8312 56.8662C33.8293 55.6866 36.5854 55.4353 39.6059 55.4353V54.4621C36.5851 54.4621 33.5846 54.701 31.3364 56.0281C29.0291 57.3901 27.6061 59.836 27.6061 63.9948H28.5793ZM39.6059 55.4353C42.338 55.4353 44.8651 55.6368 46.8058 56.5622C48.698 57.4644 50.073 59.0745 50.4789 62.0366L51.4431 61.9044C50.9951 58.6354 49.4285 56.7346 47.2247 55.6837C45.0692 54.6559 42.3458 54.4621 39.6059 54.4621V55.4353ZM50.961 61.4839H45.3309V62.4571H50.961V61.4839ZM45.8027 61.8511C45.4522 60.4666 44.7013 59.5981 43.5921 59.1026C42.5261 58.6263 41.1623 58.5107 39.6059 58.5107V59.4839C41.1493 59.4839 42.3317 59.6055 43.1951 59.9912C44.0153 60.3575 44.5771 60.9757 44.8592 62.0899L45.8027 61.8511ZM39.6059 58.5107C37.5634 58.5107 35.9201 58.6731 34.8034 59.4902C33.6389 60.3423 33.1729 61.7958 33.1729 63.9948H34.1461C34.1461 61.8922 34.5974 60.8469 35.3781 60.2756C36.2066 59.6694 37.5366 59.4839 39.6059 59.4839V58.5107ZM33.1729 63.9948C33.1729 66.1938 33.6389 67.6473 34.8034 68.4994C35.9201 69.3165 37.5634 69.4789 39.6059 69.4789V68.5057C37.5366 68.5057 36.2066 68.3202 35.3781 67.714C34.5974 67.1427 34.1461 66.0974 34.1461 63.9948H33.1729ZM39.6059 69.4789C42.0198 69.4789 44.0165 69.2153 45.1259 67.662L44.334 67.0964C43.5456 68.2 42.063 68.5057 39.6059 68.5057V69.4789ZM44.9056 66.9254L39.0225 64.648L38.6711 65.5556L44.5543 67.833L44.9056 66.9254ZM39.3334 65.1018V63.5836H38.3602V65.1018H39.3334ZM75.7205 59.3768V59.8635H76.2071V59.3768H75.7205ZM58.2609 59.3768V58.8902H57.7742V59.3768H58.2609ZM58.2609 61.9705H57.7742V62.4571H58.2609V61.9705ZM74.3604 61.9705H74.8471V61.4839H74.3604V61.9705ZM74.3604 66.0191V66.5057H74.8471V66.0191H74.3604ZM58.2609 66.0191V65.5325H57.7742V66.0191H58.2609ZM58.2609 68.6128H57.7742V69.0994H58.2609V68.6128ZM75.7205 68.6128H76.2071V68.1261H75.7205V68.6128ZM75.7205 72.6614V73.148H76.2071V72.6614H75.7205ZM52.694 72.6614H52.2074V73.148H52.694V72.6614ZM52.694 55.3282V54.8416H52.2074V55.3282H52.694ZM75.7205 55.3282H76.2071V54.8416H75.7205V55.3282ZM75.7205 58.8902H58.2609V59.8635H75.7205V58.8902ZM57.7742 59.3768V61.9705H58.7475V59.3768H57.7742ZM58.2609 62.4571H74.3604V61.4839H58.2609V62.4571ZM73.8738 61.9705V66.0191H74.8471V61.9705H73.8738ZM74.3604 65.5325H58.2609V66.5057H74.3604V65.5325ZM57.7742 66.0191V68.6128H58.7475V66.0191H57.7742ZM58.2609 69.0994H75.7205V68.1261H58.2609V69.0994ZM75.2339 68.6128V72.6614H76.2071V68.6128H75.2339ZM75.7205 72.1748H52.694V73.148H75.7205V72.1748ZM53.1806 72.6614V55.3282H52.2074V72.6614H53.1806ZM52.694 55.8148H75.7205V54.8416H52.694V55.8148ZM75.2339 55.3282V59.3768H76.2071V55.3282H75.2339ZM94.9564 55.3282V54.8416H94.4698V55.3282H94.9564ZM100.587 55.3282H101.073V54.8416H100.587V55.3282ZM100.587 72.6614V73.148H101.073V72.6614H100.587ZM95.0829 72.6614L94.7565 73.0223L94.8955 73.148H95.0829V72.6614ZM83.1585 61.8756L83.4849 61.5147L82.6719 60.7793V61.8756H83.1585ZM83.1585 72.6614V73.148H83.6451V72.6614H83.1585ZM77.5284 72.6614H77.0418V73.148H77.5284V72.6614ZM77.5284 55.3282V54.8416H77.0418V55.3282H77.5284ZM83.0636 55.3282L83.3905 54.9678L83.2514 54.8416H83.0636V55.3282ZM94.9564 66.114L94.6295 66.4745L95.443 67.2122V66.114H94.9564ZM94.9564 55.8148H100.587V54.8416H94.9564V55.8148ZM100.1 55.3282V72.6614H101.073V55.3282H100.1ZM100.587 72.1748H95.0829V73.148H100.587V72.1748ZM95.4094 72.3005L83.4849 61.5147L82.8321 62.2365L94.7565 73.0223L95.4094 72.3005ZM82.6719 61.8756V72.6614H83.6451V61.8756H82.6719ZM83.1585 72.1748H77.5284V73.148H83.1585V72.1748ZM78.015 72.6614V55.3282H77.0418V72.6614H78.015ZM77.5284 55.8148H83.0636V54.8416H77.5284V55.8148ZM82.7367 55.6887L94.6295 66.4745L95.2833 65.7535L83.3905 54.9678L82.7367 55.6887ZM95.443 66.114V55.3282H94.4698V66.114H95.443ZM119.527 65.7028V65.2162H119.125L119.049 65.6105L119.527 65.7028ZM125.157 65.7028L125.64 65.7594L125.704 65.2162H125.157V65.7028ZM125.093 61.9705V62.4571H125.651L125.576 61.9044L125.093 61.9705ZM119.463 61.9705L118.992 62.0899L119.085 62.4571H119.463V61.9705ZM119.527 66.1894H125.157V65.2162H119.527V66.1894ZM124.673 65.6462C124.311 68.7386 122.939 70.4226 121.034 71.3675C119.08 72.3369 116.517 72.5543 113.738 72.5543V73.5275C116.527 73.5275 119.293 73.318 121.467 72.2393C123.69 71.1362 125.243 69.1511 125.64 65.7594L124.673 65.6462ZM113.738 72.5543C110.718 72.5543 107.962 72.303 105.964 71.1234C104.025 69.9788 102.712 67.9016 102.712 63.9948H101.738C101.738 68.1536 103.162 70.5995 105.469 71.9615C107.717 73.2887 110.718 73.5275 113.738 73.5275V72.5543ZM102.712 63.9948C102.712 60.088 104.025 58.0108 105.964 56.8662C107.962 55.6866 110.718 55.4353 113.738 55.4353V54.4621C110.718 54.4621 107.717 54.701 105.469 56.0281C103.162 57.3901 101.738 59.836 101.738 63.9948H102.712ZM113.738 55.4353C116.47 55.4353 118.998 55.6368 120.938 56.5622C122.83 57.4644 124.205 59.0745 124.611 62.0366L125.576 61.9044C125.128 58.6354 123.561 56.7346 121.357 55.6837C119.202 54.6559 116.478 54.4621 113.738 54.4621V55.4353ZM125.093 61.4839H119.463V62.4571H125.093V61.4839ZM119.935 61.8511C119.585 60.4666 118.834 59.5981 117.725 59.1026C116.658 58.6263 115.295 58.5107 113.738 58.5107V59.4839C115.282 59.4839 116.464 59.6055 117.328 59.9912C118.148 60.3575 118.71 60.9757 118.992 62.0899L119.935 61.8511ZM113.738 58.5107C111.696 58.5107 110.053 58.6731 108.936 59.4902C107.771 60.3423 107.305 61.7958 107.305 63.9948H108.279C108.279 61.8922 108.73 60.8469 109.511 60.2756C110.339 59.6694 111.669 59.4839 113.738 59.4839V58.5107ZM107.305 63.9948C107.305 66.1938 107.771 67.6473 108.936 68.4994C110.053 69.3165 111.696 69.4789 113.738 69.4789V68.5057C111.669 68.5057 110.339 68.3202 109.511 67.714C108.73 67.1427 108.279 66.0974 108.279 63.9948H107.305ZM113.738 69.4789C115.356 69.4789 116.768 69.3563 117.853 68.829C118.987 68.2781 119.711 67.3146 120.004 65.7951L119.049 65.6105C118.805 66.8745 118.247 67.5557 117.428 67.9537C116.56 68.3753 115.347 68.5057 113.738 68.5057V69.4789ZM148.184 55.3282L148.524 55.6764L149.379 54.8416H148.184V55.3282ZM138.695 64.5958L138.355 64.2476L138.209 64.3908V64.5958H138.695ZM138.695 72.693V73.1796H139.182V72.693H138.695ZM133.128 72.693H132.642V73.1796H133.128V72.693ZM133.128 64.5958H133.615V64.3908L133.468 64.2476L133.128 64.5958ZM123.639 55.3282V54.8416H122.445L123.299 55.6764L123.639 55.3282ZM129.965 55.3282L130.306 54.9805L130.164 54.8416H129.965V55.3282ZM135.912 61.1481L135.571 61.4959L135.913 61.8299L136.253 61.495L135.912 61.1481ZM141.827 55.3282V54.8416H141.627L141.485 54.9814L141.827 55.3282ZM147.844 54.9801L138.355 64.2476L139.035 64.9439L148.524 55.6764L147.844 54.9801ZM138.209 64.5958V72.693H139.182V64.5958H138.209ZM138.695 72.2064H133.128V73.1796H138.695V72.2064ZM133.615 72.693V64.5958H132.642V72.693H133.615ZM133.468 64.2476L123.979 54.9801L123.299 55.6764L132.788 64.9439L133.468 64.2476ZM123.639 55.8148H129.965V54.8416H123.639V55.8148ZM129.625 55.676L135.571 61.4959L136.252 60.8003L130.306 54.9805L129.625 55.676ZM136.253 61.495L142.168 55.6751L141.485 54.9814L135.571 60.8013L136.253 61.495ZM141.827 55.8148H148.184V54.8416H141.827V55.8148Z" fill="#FFBFCB" mask="url(#path-3-outside-1_1_140)"/>
<rect x="49" y="26" width="9" height="19" fill="#FFBFCB"/>
<g clip-path="url(#clip0_1_140)">
<path d="M58.8656 14.06C58.5068 13.717 58.0802 13.4447 57.6103 13.2587C57.1404 13.0727 56.6364 12.9768 56.1273 12.9763C55.1642 12.9761 54.2363 13.3197 53.5275 13.9389C52.8188 13.3197 51.8909 12.9761 50.9278 12.9763C50.4181 12.9768 49.9135 13.073 49.4431 13.2594C48.9727 13.4458 48.5458 13.7187 48.1869 14.0625C46.6561 15.5225 46.6568 17.8061 48.1882 19.2599L53.5275 24.3306L58.8669 19.2599C60.3983 17.8061 60.399 15.5225 58.8656 14.06Z" fill="#FFBFCB"/>
</g>
<defs>
<clipPath id="clip0_1_140">
<rect width="14.5984" height="14.5984" fill="white" transform="translate(45.4172 11.3542)"/>
</clipPath>
</defs>
</svg>
