<svg width="557" height="289" viewBox="0 0 557 289" fill="none" xmlns="http://www.w3.org/2000/svg">
<g opacity="0.1">
<path d="M124.995 46.508C153.693 46.508 162.196 62.2387 162.196 74.9933V90.0862C162.196 102.416 153.693 118.359 124.995 118.359H44.8537V163H7.44018V46.508H124.995ZM44.8537 91.1491H116.067C116.067 91.1491 124.57 91.1491 124.57 82.4334C124.57 73.7178 116.067 73.7178 116.067 73.7178H44.8537V91.1491Z" fill="#FFBFCB"/>
<path d="M348.709 49.7564H386.548V166.248H349.56L269.418 93.7598V166.248H231.579V49.7564H268.78L348.709 122.245V49.7564ZM556.355 49.7564L484.079 108.002L556.355 166.248H503.211L448.791 121.607H439.013V166.248H401.599V49.7564H439.013V94.3975H448.791L503.211 49.7564H556.355Z" fill="#FFBFCB"/>
<mask id="path-3-outside-1_1_12" maskUnits="userSpaceOnUse" x="12.9048" y="198.147" width="531" height="71" fill="black">
<rect fill="white" x="12.9048" y="198.147" width="531" height="71"/>
<path d="M48.8836 202.047H72.6036L105.42 265.147H85.1545L80.2032 255.705H41.3991L36.4478 265.147H16.1822L48.8836 202.047ZM48.9987 240.967H72.6036L60.7436 218.283L48.9987 240.967ZM141.418 232.1H185.75C185.98 234.634 185.865 237.282 185.75 239.815C182.986 263.42 164.448 266.529 144.182 266.529C122.189 266.529 102.269 262.959 102.269 233.597C102.269 204.235 122.189 200.666 144.182 200.666C164.102 200.666 182.41 203.544 185.519 226.228H165.023C162.72 217.131 155.466 215.404 144.182 215.404C129.213 215.404 122.535 217.937 122.535 233.597C122.535 249.257 129.213 251.79 144.182 251.79C153.048 251.79 159.381 250.754 162.836 245.918L141.418 237.627V232.1ZM275.654 216.786H212.094V226.228H270.703V240.967H212.094V250.409H275.654V265.147H191.828V202.047H275.654V216.786ZM345.681 202.047H366.176V265.147H346.141L302.731 225.883V265.147H282.235V202.047H302.386L345.681 241.312V202.047ZM435.126 239.815H455.622C452.859 263.42 434.32 266.529 414.055 266.529C392.062 266.529 372.142 262.959 372.142 233.597C372.142 204.235 392.062 200.666 414.055 200.666C433.975 200.666 452.283 203.544 455.392 226.228H434.896C432.593 217.131 425.339 215.404 414.055 215.404C399.086 215.404 392.407 217.937 392.407 233.597C392.407 249.257 399.086 251.79 414.055 251.79C425.799 251.79 433.169 249.948 435.126 239.815ZM539.452 202.047L504.908 235.785V265.262H484.642V235.785L450.099 202.047H473.128L494.775 223.234L516.308 202.047H539.452Z"/>
</mask>
<path d="M48.8836 202.047V200.276H47.8064L47.3108 201.232L48.8836 202.047ZM72.6036 202.047L74.1752 201.23L73.679 200.276H72.6036V202.047ZM105.42 265.147V266.919H108.338L106.992 264.33L105.42 265.147ZM85.1545 265.147L83.5856 265.97L84.0831 266.919H85.1545V265.147ZM80.2032 255.705L81.772 254.883L81.2745 253.934H80.2032V255.705ZM41.3991 255.705V253.934H40.3278L39.8302 254.883L41.3991 255.705ZM36.4478 265.147V266.919H37.5192L38.0167 265.97L36.4478 265.147ZM16.1822 265.147L14.6094 264.332L13.2689 266.919H16.1822V265.147ZM48.9987 240.967L47.4256 240.152L46.0867 242.738H48.9987V240.967ZM72.6036 240.967V242.738H75.5288L74.1734 240.146L72.6036 240.967ZM60.7436 218.283L62.3134 217.462L60.7359 214.445L59.1705 217.468L60.7436 218.283ZM48.8836 203.819H72.6036V200.276H48.8836V203.819ZM71.032 202.865L103.848 265.965L106.992 264.33L74.1752 201.23L71.032 202.865ZM105.42 263.376H85.1545V266.919H105.42V263.376ZM86.7233 264.324L81.772 254.883L78.6343 256.528L83.5856 265.97L86.7233 264.324ZM80.2032 253.934H41.3991V257.477H80.2032V253.934ZM39.8302 254.883L34.879 264.324L38.0167 265.97L42.968 256.528L39.8302 254.883ZM36.4478 263.376H16.1822V266.919H36.4478V263.376ZM17.755 265.962L50.4564 202.862L47.3108 201.232L14.6094 264.332L17.755 265.962ZM48.9987 242.738H72.6036V239.195H48.9987V242.738ZM74.1734 240.146L62.3134 217.462L59.1737 219.104L71.0337 241.787L74.1734 240.146ZM59.1705 217.468L47.4256 240.152L50.5718 241.781L62.3167 219.097L59.1705 217.468ZM141.418 232.1V230.329H139.647V232.1H141.418ZM185.749 232.1L187.514 231.94L187.367 230.329H185.749V232.1ZM185.749 239.815L187.509 240.021L187.516 239.959L187.519 239.896L185.749 239.815ZM185.519 226.228V227.999H187.55L187.274 225.987L185.519 226.228ZM165.023 226.228L163.306 226.663L163.644 227.999H165.023V226.228ZM162.836 245.918L164.277 246.948L165.604 245.09L163.475 244.266L162.836 245.918ZM141.418 237.627H139.647V238.841L140.779 239.279L141.418 237.627ZM141.418 233.872H185.749V230.329H141.418V233.872ZM183.985 232.261C184.203 234.654 184.096 237.182 183.98 239.735L187.519 239.896C187.633 237.382 187.757 234.613 187.514 231.94L183.985 232.261ZM183.99 239.609C182.672 250.867 177.674 256.997 170.742 260.437C163.629 263.966 154.297 264.757 144.182 264.757V268.3C154.332 268.3 164.402 267.537 172.316 263.611C180.41 259.595 186.063 252.368 187.509 240.021L183.99 239.609ZM144.182 264.757C133.186 264.757 123.153 263.842 115.879 259.548C108.82 255.381 104.04 247.82 104.04 233.597H100.497C100.497 248.737 105.678 257.641 114.078 262.599C122.262 267.431 133.185 268.3 144.182 268.3V264.757ZM104.04 233.597C104.04 219.375 108.82 211.813 115.879 207.646C123.153 203.352 133.186 202.437 144.182 202.437V198.894C133.185 198.894 122.262 199.764 114.078 204.595C105.678 209.553 100.497 218.458 100.497 233.597H104.04ZM144.182 202.437C154.128 202.437 163.328 203.171 170.392 206.539C177.281 209.824 182.286 215.685 183.764 226.468L187.274 225.987C185.643 214.087 179.94 207.167 171.917 203.341C164.071 199.6 154.156 198.894 144.182 198.894V202.437ZM185.519 224.456H165.023V227.999H185.519V224.456ZM166.741 225.793C165.465 220.753 162.731 217.591 158.693 215.787C154.812 214.054 149.848 213.633 144.182 213.633V217.176C149.8 217.176 154.105 217.618 157.248 219.022C160.234 220.356 162.279 222.606 163.306 226.663L166.741 225.793ZM144.182 213.633C136.746 213.633 130.764 214.224 126.699 217.199C122.46 220.301 120.763 225.592 120.763 233.597H124.306C124.306 225.943 125.949 222.138 128.791 220.058C131.807 217.851 136.649 217.176 144.182 217.176V213.633ZM120.763 233.597C120.763 241.603 122.46 246.894 126.699 249.996C130.764 252.97 136.746 253.562 144.182 253.562V250.019C136.649 250.019 131.807 249.344 128.791 247.137C125.949 245.057 124.306 241.252 124.306 233.597H120.763ZM144.182 253.562C152.97 253.562 160.238 252.602 164.277 246.948L161.394 244.888C158.524 248.906 153.127 250.019 144.182 250.019V253.562ZM163.475 244.266L142.058 235.975L140.779 239.279L162.196 247.57L163.475 244.266ZM143.19 237.627V232.1H139.647V237.627H143.19ZM275.654 216.786V218.557H277.425V216.786H275.654ZM212.094 216.786V215.015H210.322V216.786H212.094ZM212.094 226.228H210.322V227.999H212.094V226.228ZM270.703 226.228H272.474V224.456H270.703V226.228ZM270.703 240.967V242.738H272.474V240.967H270.703ZM212.094 240.967V239.195H210.322V240.967H212.094ZM212.094 250.409H210.322V252.18H212.094V250.409ZM275.654 250.409H277.425V248.637H275.654V250.409ZM275.654 265.147V266.919H277.425V265.147H275.654ZM191.828 265.147H190.056V266.919H191.828V265.147ZM191.828 202.047V200.276H190.056V202.047H191.828ZM275.654 202.047H277.425V200.276H275.654V202.047ZM275.654 215.015H212.094V218.557H275.654V215.015ZM210.322 216.786V226.228H213.865V216.786H210.322ZM212.094 227.999H270.703V224.456H212.094V227.999ZM268.931 226.228V240.967H272.474V226.228H268.931ZM270.703 239.195H212.094V242.738H270.703V239.195ZM210.322 240.967V250.409H213.865V240.967H210.322ZM212.094 252.18H275.654V248.637H212.094V252.18ZM273.883 250.409V265.147H277.425V250.409H273.883ZM275.654 263.376H191.828V266.919H275.654V263.376ZM193.599 265.147V202.047H190.056V265.147H193.599ZM191.828 203.819H275.654V200.276H191.828V203.819ZM273.883 202.047V216.786H277.425V202.047H273.883ZM345.681 202.047V200.276H343.909V202.047H345.681ZM366.176 202.047H367.948V200.276H366.176V202.047ZM366.176 265.147V266.919H367.948V265.147H366.176ZM346.141 265.147L344.953 266.461L345.459 266.919H346.141V265.147ZM302.731 225.883L303.92 224.569L300.96 221.892V225.883H302.731ZM302.731 265.147V266.919H304.503V265.147H302.731ZM282.235 265.147H280.464V266.919H282.235V265.147ZM282.235 202.047V200.276H280.464V202.047H282.235ZM302.386 202.047L303.576 200.735L303.069 200.276H302.386V202.047ZM345.681 241.312L344.49 242.624L347.452 245.31V241.312H345.681ZM345.681 203.819H366.176V200.276H345.681V203.819ZM364.405 202.047V265.147H367.948V202.047H364.405ZM366.176 263.376H346.141V266.919H366.176V263.376ZM347.329 263.833L303.92 224.569L301.543 227.196L344.953 266.461L347.329 263.833ZM300.96 225.883V265.147H304.503V225.883H300.96ZM302.731 263.376H282.235V266.919H302.731V263.376ZM284.007 265.147V202.047H280.464V265.147H284.007ZM282.235 203.819H302.386V200.276H282.235V203.819ZM301.196 203.36L344.49 242.624L346.871 240L303.576 200.735L301.196 203.36ZM347.452 241.312V202.047H343.909V241.312H347.452ZM435.126 239.815V238.044H433.664L433.387 239.479L435.126 239.815ZM455.622 239.815L457.382 240.021L457.613 238.044H455.622V239.815ZM455.392 226.228V227.999H457.423L457.147 225.987L455.392 226.228ZM434.896 226.228L433.179 226.663L433.517 227.999H434.896V226.228ZM435.126 241.587H455.622V238.044H435.126V241.587ZM453.863 239.609C452.545 250.867 447.547 256.997 440.614 260.437C433.502 263.966 424.17 264.757 414.055 264.757V268.3C424.205 268.3 434.275 267.537 442.189 263.611C450.283 259.595 455.936 252.368 457.382 240.021L453.863 239.609ZM414.055 264.757C403.059 264.757 393.025 263.842 385.751 259.548C378.693 255.381 373.913 247.82 373.913 233.597H370.37C370.37 248.737 375.551 257.641 383.95 262.599C392.134 267.431 403.058 268.3 414.055 268.3V264.757ZM373.913 233.597C373.913 219.375 378.693 211.813 385.751 207.646C393.025 203.352 403.059 202.437 414.055 202.437V198.894C403.058 198.894 392.134 199.764 383.95 204.595C375.551 209.553 370.37 218.458 370.37 233.597H373.913ZM414.055 202.437C424 202.437 433.2 203.171 440.265 206.539C447.153 209.824 452.159 215.685 453.637 226.468L457.147 225.987C455.516 214.087 449.813 207.167 441.79 203.341C433.943 199.6 424.029 198.894 414.055 198.894V202.437ZM455.392 224.456H434.896V227.999H455.392V224.456ZM436.613 225.793C435.337 220.753 432.604 217.591 428.566 215.787C424.685 214.054 419.72 213.633 414.055 213.633V217.176C419.673 217.176 423.978 217.618 427.121 219.022C430.107 220.356 432.152 222.606 433.179 226.663L436.613 225.793ZM414.055 213.633C406.619 213.633 400.637 214.224 396.571 217.199C392.332 220.301 390.636 225.592 390.636 233.597H394.179C394.179 225.943 395.821 222.138 398.664 220.058C401.68 217.851 406.521 217.176 414.055 217.176V213.633ZM390.636 233.597C390.636 241.603 392.332 246.894 396.571 249.996C400.637 252.97 406.619 253.562 414.055 253.562V250.019C406.521 250.019 401.68 249.344 398.664 247.137C395.821 245.057 394.179 241.252 394.179 233.597H390.636ZM414.055 253.562C419.943 253.562 425.084 253.115 429.035 251.196C433.163 249.19 435.797 245.683 436.866 240.151L433.387 239.479C432.498 244.081 430.469 246.56 427.487 248.009C424.327 249.544 419.911 250.019 414.055 250.019V253.562ZM539.452 202.047L540.69 203.315L543.801 200.276H539.452V202.047ZM504.908 235.785L503.67 234.518L503.137 235.039V235.785H504.908ZM504.908 265.262V267.034H506.68V265.262H504.908ZM484.642 265.262H482.871V267.034H484.642V265.262ZM484.642 235.785H486.414V235.039L485.88 234.518L484.642 235.785ZM450.099 202.047V200.276H445.75L448.861 203.315L450.099 202.047ZM473.128 202.047L474.367 200.781L473.851 200.276H473.128V202.047ZM494.775 223.234L493.536 224.5L494.779 225.716L496.018 224.497L494.775 223.234ZM516.308 202.047V200.276H515.582L515.065 200.785L516.308 202.047ZM538.214 200.78L503.67 234.518L506.146 237.052L540.69 203.315L538.214 200.78ZM503.137 235.785V265.262H506.68V235.785H503.137ZM504.908 263.491H484.642V267.034H504.908V263.491ZM486.414 265.262V235.785H482.871V265.262H486.414ZM485.88 234.518L451.337 200.78L448.861 203.315L483.405 237.052L485.88 234.518ZM450.099 203.819H473.128V200.276H450.099V203.819ZM471.889 203.313L493.536 224.5L496.014 221.968L474.367 200.781L471.889 203.313ZM496.018 224.497L517.55 203.31L515.065 200.785L493.533 221.971L496.018 224.497ZM516.308 203.819H539.452V200.276H516.308V203.819Z" fill="#FFBFCB" mask="url(#path-3-outside-1_1_12)"/>
<rect x="178.38" y="94.6508" width="32.7637" height="69.1679" fill="#FFBFCB"/>
<g clip-path="url(#clip0_1_12)">
<path d="M214.295 51.1844C212.989 49.9357 211.436 48.9443 209.725 48.2672C208.015 47.5902 206.18 47.2409 204.326 47.2393C200.821 47.2385 197.442 48.4893 194.862 50.7436C192.282 48.4893 188.904 47.2385 185.398 47.2393C183.543 47.2408 181.706 47.591 179.993 48.2697C178.281 48.9483 176.727 49.942 175.42 51.1934C169.847 56.5084 169.85 64.8216 175.425 70.1141L194.862 88.5736L214.3 70.1141C219.875 64.8216 219.877 56.5084 214.295 51.1844Z" fill="#FFBFCB"/>
</g>
</g>
<defs>
<clipPath id="clip0_1_12">
<rect width="53.1442" height="53.1442" fill="white" transform="translate(165.337 41.3343)"/>
</clipPath>
</defs>
</svg>
