<svg width="30" height="30" viewBox="0 0 30 30" fill="none" xmlns="http://www.w3.org/2000/svg">
<path d="M3.125 15C3.125 9.4025 3.125 6.6025 4.86375 4.86375C6.6025 3.125 9.40125 3.125 15 3.125C20.5975 3.125 23.3975 3.125 25.1362 4.86375C26.875 6.6025 26.875 9.40125 26.875 15C26.875 20.5975 26.875 23.3975 25.1362 25.1362C23.3975 26.875 20.5988 26.875 15 26.875C9.4025 26.875 6.6025 26.875 4.86375 25.1362C3.125 23.3975 3.125 20.5988 3.125 15Z" stroke="#FFBFCB" stroke-width="2" stroke-linecap="round" stroke-linejoin="round"/>
<path d="M13.1701 13.7599C12.1451 13.6149 9.8076 13.8537 8.6626 15.9724C7.5176 18.0912 8.67135 20.2962 9.3926 21.1337C10.1039 21.9174 12.3651 23.4012 14.7639 21.9524C15.3589 21.5937 16.1001 21.3249 16.9401 18.5187L16.8426 7.4762C16.6801 8.69245 18.0239 11.5449 21.8476 11.8824" stroke="#FFBFCB" stroke-width="2" stroke-linecap="round" stroke-linejoin="round"/>
</svg>
