<svg width="33" height="33" viewBox="0 0 33 33" fill="none" xmlns="http://www.w3.org/2000/svg">
<path d="M16.5 30.25C14.5979 30.25 12.8104 29.8888 11.1375 29.1665C9.46459 28.4442 8.00938 27.4647 6.77188 26.2281C5.53438 24.9915 4.55492 23.5363 3.8335 21.8625C3.11209 20.1887 2.75092 18.4012 2.75 16.5C2.74909 14.5988 3.11025 12.8113 3.8335 11.1375C4.55675 9.46367 5.53621 8.00846 6.77188 6.77188C8.00754 5.53529 9.46275 4.55583 11.1375 3.8335C12.8123 3.11117 14.5998 2.75 16.5 2.75C18.4003 2.75 20.1877 3.11117 21.8625 3.8335C23.5373 4.55583 24.9925 5.53529 26.2281 6.77188C27.4638 8.00846 28.4437 9.46367 29.1679 11.1375C29.892 12.8113 30.2528 14.5988 30.25 16.5V18.4937C30.25 19.8458 29.7862 20.9976 28.8585 21.9491C27.9308 22.9006 26.7905 23.3759 25.4375 23.375C24.6354 23.375 23.8792 23.2031 23.1688 22.8594C22.4583 22.5156 21.8625 22.0229 21.3813 21.3813C20.7167 22.0458 19.9659 22.5445 19.129 22.8773C18.2921 23.21 17.4158 23.3759 16.5 23.375C14.5979 23.375 12.9768 22.7045 11.6366 21.3634C10.2965 20.0223 9.62592 18.4012 9.625 16.5C9.62409 14.5988 10.2946 12.9777 11.6366 11.6366C12.9786 10.2955 14.5998 9.625 16.5 9.625C18.4003 9.625 20.0218 10.2955 21.3648 11.6366C22.7077 12.9777 23.3778 14.5988 23.375 16.5V18.4937C23.375 19.0896 23.5698 19.5938 23.9594 20.0063C24.349 20.4188 24.8417 20.625 25.4375 20.625C26.0333 20.625 26.526 20.4188 26.9156 20.0063C27.3052 19.5938 27.5 19.0896 27.5 18.4937V16.5C27.5 13.4292 26.4344 10.8281 24.3031 8.69687C22.1719 6.56562 19.5708 5.5 16.5 5.5C13.4292 5.5 10.8281 6.56562 8.69688 8.69687C6.56563 10.8281 5.5 13.4292 5.5 16.5C5.5 19.5708 6.56563 22.1719 8.69688 24.3031C10.8281 26.4344 13.4292 27.5 16.5 27.5H22C22.3896 27.5 22.7164 27.632 22.9804 27.896C23.2444 28.16 23.3759 28.4863 23.375 28.875C23.3741 29.2637 23.2421 29.5905 22.979 29.8554C22.7159 30.1203 22.3896 30.2518 22 30.25H16.5ZM16.5 20.625C17.6458 20.625 18.6198 20.224 19.4219 19.4219C20.224 18.6198 20.625 17.6458 20.625 16.5C20.625 15.3542 20.224 14.3802 19.4219 13.5781C18.6198 12.776 17.6458 12.375 16.5 12.375C15.3542 12.375 14.3802 12.776 13.5781 13.5781C12.776 14.3802 12.375 15.3542 12.375 16.5C12.375 17.6458 12.776 18.6198 13.5781 19.4219C14.3802 20.224 15.3542 20.625 16.5 20.625Z" fill="#FFADBC"/>
</svg>
