<svg width="33" height="33" viewBox="0 0 33 33" fill="none" xmlns="http://www.w3.org/2000/svg">
<path fill-rule="evenodd" clip-rule="evenodd" d="M6.59988 30.7313C6.0405 30.7315 5.48655 30.6216 4.96969 30.4076C4.45283 30.1937 3.98321 29.88 3.58767 29.4844C3.19212 29.0889 2.87841 28.6193 2.66447 28.1024C2.45053 27.5855 2.34055 27.0316 2.34082 26.4722V6.67221C2.34055 6.11283 2.45053 5.55887 2.66447 5.04202C2.87841 4.52516 3.19212 4.05554 3.58767 3.65999C3.98321 3.26445 4.45283 2.95074 4.96969 2.7368C5.48655 2.52286 6.0405 2.41288 6.59988 2.41315H26.3999C26.9593 2.41288 27.5132 2.52286 28.0301 2.7368C28.5469 2.95074 29.0166 3.26445 29.4121 3.65999C29.8076 4.05554 30.1214 4.52516 30.3353 5.04202C30.5492 5.55887 30.6592 6.11283 30.6589 6.67221V26.4722C30.6592 27.0316 30.5492 27.5855 30.3353 28.1024C30.1214 28.6193 29.8076 29.0889 29.4121 29.4844C29.0166 29.88 28.5469 30.1937 28.0301 30.4076C27.5132 30.6216 26.9593 30.7315 26.3999 30.7313H6.59988ZM23.9043 18.7688H20.9136V28.6688H26.4205C26.7092 28.6688 26.9951 28.6119 27.2619 28.5014C27.5286 28.3909 27.771 28.229 27.9752 28.0248C28.1793 27.8206 28.3413 27.5783 28.4518 27.3115C28.5623 27.0448 28.6191 26.7589 28.6191 26.4701V6.67015C28.6191 6.08704 28.3875 5.52781 27.9752 5.11548C27.5629 4.70316 27.0036 4.47152 26.4205 4.47152H6.62051C6.0374 4.47152 5.47817 4.70316 5.06585 5.11548C4.65352 5.52781 4.42188 6.08704 4.42188 6.67015V26.4701C4.42188 27.0533 4.65352 27.6125 5.06585 28.0248C5.47817 28.4371 6.0374 28.6688 6.62051 28.6688H17.6136V18.7688H14.3136V15.4688H17.6136V13.6971C17.6136 10.3352 19.2492 8.87084 22.0274 8.87084C23.3371 8.87084 24.0404 8.96571 24.3786 9.01315H24.3993V12.1688H22.4976C21.5386 12.1688 21.0848 12.5813 20.9487 13.4063C20.9156 13.6226 20.8997 13.8412 20.9013 14.0601V15.4688H24.3663L23.896 18.7688H23.9043Z" fill="#FFADBC"/>
</svg>
