<svg width="33" height="33" viewBox="0 0 33 33" fill="none" xmlns="http://www.w3.org/2000/svg">
<path d="M3.4375 16.5C3.4375 10.3427 3.4375 7.26275 5.35013 5.35013C7.26275 3.4375 10.3414 3.4375 16.5 3.4375C22.6573 3.4375 25.7372 3.4375 27.6499 5.35013C29.5625 7.26275 29.5625 10.3414 29.5625 16.5C29.5625 22.6573 29.5625 25.7372 27.6499 27.6499C25.7372 29.5625 22.6586 29.5625 16.5 29.5625C10.3427 29.5625 7.26275 29.5625 5.35013 27.6499C3.4375 25.7372 3.4375 22.6586 3.4375 16.5Z" stroke="#FFADBC" stroke-width="2" stroke-linecap="round" stroke-linejoin="round"/>
<path d="M24.0735 8.9375H24.0597M22.6875 16.5C22.6875 18.141 22.0356 19.7148 20.8752 20.8752C19.7148 22.0356 18.141 22.6875 16.5 22.6875C14.859 22.6875 13.2852 22.0356 12.1248 20.8752C10.9644 19.7148 10.3125 18.141 10.3125 16.5C10.3125 14.859 10.9644 13.2852 12.1248 12.1248C13.2852 10.9644 14.859 10.3125 16.5 10.3125C18.141 10.3125 19.7148 10.9644 20.8752 12.1248C22.0356 13.2852 22.6875 14.859 22.6875 16.5Z" stroke="#FFADBC" stroke-width="2" stroke-linecap="round" stroke-linejoin="round"/>
</svg>
