<svg width="33" height="33" viewBox="0 0 33 33" fill="none" xmlns="http://www.w3.org/2000/svg">
<path fill-rule="evenodd" clip-rule="evenodd" d="M6.875 1.71875C5.87215 1.71875 4.91037 2.11713 4.20125 2.82625C3.49213 3.53537 3.09375 4.49715 3.09375 5.5C3.09375 6.50285 3.49213 7.46463 4.20125 8.17375C4.91037 8.88287 5.87215 9.28125 6.875 9.28125C7.87785 9.28125 8.83963 8.88287 9.54875 8.17375C10.2579 7.46463 10.6562 6.50285 10.6562 5.5C10.6562 4.49715 10.2579 3.53537 9.54875 2.82625C8.83963 2.11713 7.87785 1.71875 6.875 1.71875ZM5.15625 5.5C5.15625 5.04416 5.33733 4.60699 5.65966 4.28466C5.98199 3.96233 6.41916 3.78125 6.875 3.78125C7.33084 3.78125 7.76801 3.96233 8.09034 4.28466C8.41267 4.60699 8.59375 5.04416 8.59375 5.5C8.59375 5.95584 8.41267 6.39301 8.09034 6.71534C7.76801 7.03767 7.33084 7.21875 6.875 7.21875C6.41916 7.21875 5.98199 7.03767 5.65966 6.71534C5.33733 6.39301 5.15625 5.95584 5.15625 5.5ZM3.09375 11C3.09375 10.7265 3.2024 10.4642 3.3958 10.2708C3.58919 10.0774 3.8515 9.96875 4.125 9.96875H9.625C9.8985 9.96875 10.1608 10.0774 10.3542 10.2708C10.5476 10.4642 10.6562 10.7265 10.6562 11V28.875C10.6562 29.1485 10.5476 29.4108 10.3542 29.6042C10.1608 29.7976 9.8985 29.9062 9.625 29.9062H4.125C3.8515 29.9062 3.58919 29.7976 3.3958 29.6042C3.2024 29.4108 3.09375 29.1485 3.09375 28.875V11ZM5.15625 12.0312V27.8438H8.59375V12.0312H5.15625ZM12.7188 11C12.7188 10.7265 12.8274 10.4642 13.0208 10.2708C13.2142 10.0774 13.4765 9.96875 13.75 9.96875H19.25C19.5235 9.96875 19.7858 10.0774 19.9792 10.2708C20.1726 10.4642 20.2812 10.7265 20.2812 11V11.5968L20.8794 11.3396C21.9107 10.8991 23.0047 10.623 24.1216 10.5215C27.9372 10.175 31.2812 13.1725 31.2812 17.0225V28.875C31.2812 29.1485 31.1726 29.4108 30.9792 29.6042C30.7858 29.7976 30.5235 29.9062 30.25 29.9062H24.75C24.4765 29.9062 24.2142 29.7976 24.0208 29.6042C23.8274 29.4108 23.7188 29.1485 23.7188 28.875V19.25C23.7188 18.7942 23.5377 18.357 23.2153 18.0347C22.893 17.7123 22.4558 17.5312 22 17.5312C21.5442 17.5312 21.107 17.7123 20.7847 18.0347C20.4623 18.357 20.2812 18.7942 20.2812 19.25V28.875C20.2812 29.1485 20.1726 29.4108 19.9792 29.6042C19.7858 29.7976 19.5235 29.9062 19.25 29.9062H13.75C13.4765 29.9062 13.2142 29.7976 13.0208 29.6042C12.8274 29.4108 12.7188 29.1485 12.7188 28.875V11ZM14.7812 12.0312V27.8438H18.2188V19.25C18.2188 18.2472 18.6171 17.2854 19.3263 16.5763C20.0354 15.8671 20.9972 15.4688 22 15.4688C23.0028 15.4688 23.9646 15.8671 24.6737 16.5763C25.3829 17.2854 25.7812 18.2472 25.7812 19.25V27.8438H29.2188V17.0225C29.2188 14.4045 26.9349 12.3365 24.31 12.5758C23.4082 12.6576 22.5248 12.8803 21.692 13.2358L19.657 14.1089C19.5 14.1763 19.3288 14.2037 19.1586 14.1885C18.9885 14.1734 18.8247 14.1162 18.6821 14.0222C18.5396 13.9281 18.4226 13.8001 18.3417 13.6496C18.2608 13.4992 18.2185 13.331 18.2188 13.1601V12.0312H14.7812Z" fill="#FFADBC"/>
</svg>
