<svg width="33" height="33" viewBox="0 0 33 33" fill="none" xmlns="http://www.w3.org/2000/svg">
<path d="M3.4375 16.5C3.4375 10.3427 3.4375 7.26275 5.35013 5.35013C7.26275 3.4375 10.3414 3.4375 16.5 3.4375C22.6573 3.4375 25.7372 3.4375 27.6499 5.35013C29.5625 7.26275 29.5625 10.3414 29.5625 16.5C29.5625 22.6573 29.5625 25.7372 27.6499 27.6499C25.7372 29.5625 22.6586 29.5625 16.5 29.5625C10.3427 29.5625 7.26275 29.5625 5.35013 27.6499C3.4375 25.7372 3.4375 22.6586 3.4375 16.5Z" stroke="#FFADBC" stroke-width="2" stroke-linecap="round" stroke-linejoin="round"/>
<path d="M14.4868 15.136C13.3593 14.9765 10.7881 15.2391 9.5286 17.5698C8.2691 19.9004 9.53822 22.3259 10.3316 23.2471C11.114 24.1093 13.6013 25.7414 16.24 24.1478C16.8945 23.7531 17.7098 23.4575 18.6338 20.3706L18.5266 8.22388C18.3478 9.56175 19.826 12.6995 24.0321 13.0708" stroke="#FFADBC" stroke-width="2" stroke-linecap="round" stroke-linejoin="round"/>
</svg>
