<svg width="76" height="76" viewBox="0 0 76 76" fill="none" xmlns="http://www.w3.org/2000/svg">
<path d="M47.5 66.5H28.5M47.5 66.5V39.9C47.5 39.3961 47.2998 38.9128 46.9435 38.5565C46.5872 38.2002 46.1039 38 45.6 38H30.4C29.8961 38 29.4128 38.2002 29.0565 38.5565C28.7002 38.9128 28.5 39.3961 28.5 39.9V66.5M47.5 66.5H64.6C65.1039 66.5 65.5872 66.2998 65.9435 65.9435C66.2998 65.5872 66.5 65.1039 66.5 64.6V57.3167C66.5 56.8128 66.2998 56.3295 65.9435 55.9732C65.5872 55.6169 65.1039 55.4167 64.6 55.4167H49.4C48.8961 55.4167 48.4128 55.6169 48.0565 55.9732C47.7002 56.3295 47.5 56.8128 47.5 57.3167V66.5ZM28.5 66.5V50.9833C28.5 50.4794 28.2998 49.9962 27.9435 49.6398C27.5872 49.2835 27.1039 49.0833 26.6 49.0833H11.4C10.8961 49.0833 10.4128 49.2835 10.0565 49.6398C9.70018 49.9962 9.5 50.4794 9.5 50.9833V64.6C9.5 65.1039 9.70018 65.5872 10.0565 65.9435C10.4128 66.2998 10.8961 66.5 11.4 66.5H28.5ZM34.219 16.1912L37.0975 10.089C37.1752 9.91457 37.3018 9.76638 37.462 9.66239C37.6222 9.5584 37.809 9.50305 38 9.50305C38.191 9.50305 38.3778 9.5584 38.538 9.66239C38.6982 9.76638 38.8248 9.91457 38.9025 10.089L41.7842 16.1912L48.2188 17.176C49.0453 17.3027 49.3747 18.3667 48.7762 18.9747L44.1212 23.7247L45.22 30.4317C45.3593 31.293 44.498 31.9517 43.757 31.5432L38 28.3765L32.243 31.5432C31.5052 31.9485 30.6407 31.293 30.78 30.4317L31.8788 23.7247L27.2238 18.9747C26.6222 18.3667 26.9547 17.3027 27.778 17.176L34.219 16.1912Z" stroke="#FFBFCB" stroke-width="5" stroke-linecap="round" stroke-linejoin="round"/>
</svg>
