<svg width="76" height="76" viewBox="0 0 76 76" fill="none" xmlns="http://www.w3.org/2000/svg">
<path d="M53.8335 28.2023L54.2325 27.873C60.9332 22.344 64.2835 19.5795 66.9752 20.9158C69.6668 22.249 69.6668 26.676 69.6668 35.5237V40.4763C69.6668 49.324 69.6668 53.751 66.9752 55.0842C64.2835 56.4173 60.9332 53.656 54.2325 48.127L53.8335 47.7977M6.3335 34.8333C6.3335 24.3833 6.3335 19.1583 9.57933 15.9125C12.8252 12.6667 18.0502 12.6667 28.5002 12.6667H31.6668C42.1168 12.6667 47.3418 12.6667 50.5877 15.9125C53.8335 19.1583 53.8335 24.3833 53.8335 34.8333V41.1667C53.8335 51.6167 53.8335 56.8417 50.5877 60.0875C47.3418 63.3333 42.1168 63.3333 31.6668 63.3333H28.5002C18.0502 63.3333 12.8252 63.3333 9.57933 60.0875C6.3335 56.8417 6.3335 51.6167 6.3335 41.1667V34.8333Z" stroke="#FFBFCB" stroke-width="5" stroke-linecap="round" stroke-linejoin="round"/>
<path d="M36.417 34.8333C39.0403 34.8333 41.167 32.7067 41.167 30.0833C41.167 27.46 39.0403 25.3333 36.417 25.3333C33.7936 25.3333 31.667 27.46 31.667 30.0833C31.667 32.7067 33.7936 34.8333 36.417 34.8333Z" stroke="#FFBFCB" stroke-width="5" stroke-linecap="round" stroke-linejoin="round"/>
</svg>
