<svg width="76" height="76" viewBox="0 0 76 76" fill="none" xmlns="http://www.w3.org/2000/svg">
<path d="M61.4873 49.7578C73.9988 33.8928 70.6199 18.1608 61.6329 12.6477C53.1399 7.43849 45.7268 9.53799 41.2744 12.882L38.0001 15.333M61.4873 49.7578C58.4853 53.5673 54.5681 57.38 49.5901 61.0628C44.6976 64.6887 42.2498 66.5 38.0001 66.5C33.7504 66.5 31.3058 64.6887 26.4101 61.0628C0.703103 42.0375 3.22377 19.4845 14.3673 12.6477C22.8603 7.43849 30.2734 9.53799 34.7258 12.882L38.0001 15.333M61.4873 49.7578L43.9914 29.9092C43.644 29.5164 43.1687 29.2595 42.6498 29.1842C42.1309 29.1088 41.602 29.2198 41.1573 29.4975L34.2349 33.8232C32.8774 34.682 31.2404 34.9825 29.6664 34.6619C28.0923 34.3414 26.7032 33.4245 25.7898 32.1031C24.8763 30.7818 24.5092 29.1584 24.7653 27.5726C25.0214 25.9868 25.8808 24.5615 27.1638 23.5948L38.0001 15.333" stroke="#FFBFCB" stroke-width="5" stroke-linecap="round" stroke-linejoin="round"/>
</svg>
