<svg width="76" height="76" viewBox="0 0 76 76" fill="none" xmlns="http://www.w3.org/2000/svg">
<path d="M53.0384 6.33334H67.4594L67.7761 6.37768L68.0896 6.46634L68.2796 6.54868C68.5329 6.65845 68.7641 6.81679 68.9731 7.02368L69.0998 7.16301L69.2391 7.34351L69.4101 7.62851L69.5336 7.91351L69.5938 8.11618L69.6381 8.31884L69.6666 8.61968V22.971C69.6664 23.5728 69.4378 24.152 69.027 24.5917C68.6162 25.0314 68.0538 25.2987 67.4535 25.3398C66.8531 25.3808 66.2596 25.1924 65.7928 24.8126C65.326 24.4329 65.0208 23.8901 64.9388 23.294L64.9166 22.971V14.4368L44.5233 34.8302C44.1211 35.2324 43.588 35.477 43.0208 35.5194C42.4537 35.5618 41.8901 35.3993 41.4326 35.0613L41.1666 34.8333L31.5716 25.6183L13.5533 43.6335C13.1295 44.0585 12.5605 44.3072 11.9608 44.3298C11.3611 44.3523 10.7751 44.147 10.3206 43.7551C9.86611 43.3632 9.57684 42.8137 9.51095 42.2172C9.44506 41.6207 9.60744 41.0213 9.96544 40.5397L10.1966 40.2737L29.8933 20.577C30.2958 20.1753 30.8291 19.9313 31.3963 19.8894C31.9635 19.8476 32.5268 20.0107 32.9839 20.349L33.2499 20.577L42.8449 29.792L61.5536 11.0833H53.0353C52.4619 11.0826 51.9082 10.8744 51.4763 10.4972C51.0444 10.1201 50.7636 9.59939 50.6856 9.03134L50.6634 8.70834C50.6635 8.13442 50.8713 7.57993 51.2485 7.1474C51.6258 6.71487 52.1469 6.43356 52.7154 6.35551L53.0384 6.33334ZM11.8749 53.8333C12.5048 53.8333 13.1089 54.0836 13.5543 54.529C13.9997 54.9744 14.2499 55.5785 14.2499 56.2083V67.2917C14.2499 67.9216 13.9997 68.5257 13.5543 68.9711C13.1089 69.4165 12.5048 69.6667 11.8749 69.6667C11.245 69.6667 10.641 69.4165 10.1956 68.9711C9.75016 68.5257 9.49994 67.9216 9.49994 67.2917V56.2083C9.49994 55.5785 9.75016 54.9744 10.1956 54.529C10.641 54.0836 11.245 53.8333 11.8749 53.8333ZM30.0833 43.5417C30.0833 42.9118 29.833 42.3077 29.3876 41.8623C28.9422 41.4169 28.3382 41.1667 27.7083 41.1667C27.0784 41.1667 26.4743 41.4169 26.0289 41.8623C25.5835 42.3077 25.3333 42.9118 25.3333 43.5417V67.2917C25.3333 67.9216 25.5835 68.5257 26.0289 68.9711C26.4743 69.4165 27.0784 69.6667 27.7083 69.6667C28.3382 69.6667 28.9422 69.4165 29.3876 68.9711C29.833 68.5257 30.0833 67.9216 30.0833 67.2917V43.5417ZM43.5416 47.5C44.1715 47.5 44.7756 47.7502 45.221 48.1956C45.6664 48.641 45.9166 49.2451 45.9166 49.875V67.2917C45.9166 67.9216 45.6664 68.5257 45.221 68.9711C44.7756 69.4165 44.1715 69.6667 43.5416 69.6667C42.9117 69.6667 42.3076 69.4165 41.8622 68.9711C41.4168 68.5257 41.1666 67.9216 41.1666 67.2917V49.875C41.1666 49.2451 41.4168 48.641 41.8622 48.1956C42.3076 47.7502 42.9117 47.5 43.5416 47.5ZM61.7499 34.0417C61.7499 33.4118 61.4997 32.8077 61.0543 32.3623C60.6089 31.9169 60.0048 31.6667 59.3749 31.6667C58.745 31.6667 58.141 31.9169 57.6956 32.3623C57.2502 32.8077 56.9999 33.4118 56.9999 34.0417V67.2917C56.9999 67.9216 57.2502 68.5257 57.6956 68.9711C58.141 69.4165 58.745 69.6667 59.3749 69.6667C60.0048 69.6667 60.6089 69.4165 61.0543 68.9711C61.4997 68.5257 61.7499 67.9216 61.7499 67.2917V34.0417Z" fill="#FFBFCB"/>
</svg>
