<svg width="76" height="76" viewBox="0 0 76 76" fill="none" xmlns="http://www.w3.org/2000/svg">
<path d="M69.6668 38C69.6668 55.4895 55.4897 69.6667 38.0002 69.6667C20.5107 69.6667 6.3335 55.4895 6.3335 38C6.3335 20.5105 20.5107 6.33334 38.0002 6.33334C55.4897 6.33334 69.6668 20.5105 69.6668 38Z" stroke="#FFBFCB" stroke-width="5" stroke-linecap="round" stroke-linejoin="round"/>
<path d="M46.5817 31.8598C46.2682 29.4437 43.4942 25.5423 38.5067 25.5423C32.7149 25.5423 30.2766 28.7502 29.7826 30.3557C29.0099 32.5027 29.1651 36.9138 35.9576 37.3952C44.4442 37.9968 47.8452 38.9975 47.4145 44.194C46.9839 49.3905 42.2497 50.5115 38.5099 50.3912C34.7701 50.2708 28.6521 48.5545 28.4146 43.9312M37.9146 22.1603V25.555M37.9146 50.3595V53.827" stroke="#FFBFCB" stroke-width="5" stroke-linecap="round" stroke-linejoin="round"/>
</svg>
