<svg width="76" height="76" viewBox="0 0 76 76" fill="none" xmlns="http://www.w3.org/2000/svg">
<path d="M34.8333 69.6666H33.9688C23.6455 69.6666 18.4775 69.6666 14.8928 67.1396C13.8727 66.4242 12.9608 65.5657 12.1853 64.5905C9.5 61.2148 9.5 56.3571 9.5 46.6355V38.5763C9.5 29.1935 9.5 24.5005 10.9852 20.7543C13.3728 14.7281 18.4205 9.97815 24.8235 7.72981C28.8008 6.33331 33.782 6.33331 43.757 6.33331C49.4507 6.33331 52.3007 6.33331 54.5743 7.13131C58.2318 8.41698 61.1167 11.1308 62.4815 14.573C63.3333 16.7136 63.3333 19.3958 63.3333 24.757V34.8333" stroke="#FFBFCB" stroke-width="5" stroke-linecap="round" stroke-linejoin="round"/>
<path d="M9.5 38C9.5 35.2008 10.612 32.5162 12.5913 30.5368C14.5707 28.5575 17.2553 27.4455 20.0545 27.4455C22.1635 27.4455 24.6493 27.8128 26.6982 27.265C27.5934 27.024 28.4096 26.552 29.0649 25.8962C29.7201 25.2403 30.1915 24.4238 30.4317 23.5283C30.9795 21.4795 30.6122 18.9936 30.6122 16.8846C30.613 14.086 31.7254 11.4022 33.7046 9.42353C35.6839 7.44487 38.368 6.33331 41.1667 6.33331M52.25 41.1666C47.7343 41.1666 44.8083 44.0451 41.3503 45.0933C39.9443 45.5176 39.2413 45.733 38.9563 46.0338C38.6713 46.3346 38.589 46.7716 38.4212 47.6488C36.6383 57.0506 40.5365 65.74 49.837 69.1188C50.8345 69.4861 51.3348 69.6666 52.2532 69.6666C53.1715 69.6666 53.6687 69.4861 54.6693 69.122C63.9667 65.74 67.8617 57.0506 66.0788 47.652C65.911 46.7716 65.8255 46.3315 65.5437 46.0338C65.2618 45.7361 64.5557 45.5176 63.1497 45.0933C59.6885 44.0451 56.7625 41.1666 52.25 41.1666Z" stroke="#FFBFCB" stroke-width="5" stroke-linecap="round" stroke-linejoin="round"/>
</svg>
